# xmcd
#
# Track frame offsets: 
#        150
#        13539
#        23092
#        37789
#        50789
#        62323
#        73914
#        84767
#        96742
#        106523
#        120980
#        132837
#        141834
#        158161
#        173420
#        183818
#        195236
#        211639
#        223067
#        239978
#
# Disc length: 3384 seconds
#
# Revision: 0
# Processed by: cddbd v1.5.2PL0 Copyright (c) Steve Scherf et al.
# Submitted via: ExactAudioCopyFreeDBPlugin 1.0
#
DISCID=030d3614
DTITLE=Laura Maire, Julia Riedler, Christian Baumann  - Wunderbare Gut
DTITLE=e-Nacht-Geschichten
DYEAR=2019
DGENRE=Kinder-Hörbuch
TTITLE0=Wunderbare Gute-Nacht-Geschichten 01
TTITLE1=Wunderbare Gute-Nacht-Geschichten 02
TTITLE2=Wunderbare Gute-Nacht-Geschichten 03
TTITLE3=Wunderbare Gute-Nacht-Geschichten 04
TTITLE4=Wunderbare Gute-Nacht-Geschichten 05
TTITLE5=Wunderbare Gute-Nacht-Geschichten 06
TTITLE6=Wunderbare Gute-Nacht-Geschichten 07
TTITLE7=Wunderbare Gute-Nacht-Geschichten 08
TTITLE8=Wunderbare Gute-Nacht-Geschichten 09
TTITLE9=Wunderbare Gute-Nacht-Geschichten 10
TTITLE10=Wunderbare Gute-Nacht-Geschichten 11
TTITLE11=Wunderbare Gute-Nacht-Geschichten 12
TTITLE12=Wunderbare Gute-Nacht-Geschichten 13
TTITLE13=Wunderbare Gute-Nacht-Geschichten 14
TTITLE14=Wunderbare Gute-Nacht-Geschichten 15
TTITLE15=Wunderbare Gute-Nacht-Geschichten 16
TTITLE16=Wunderbare Gute-Nacht-Geschichten 17
TTITLE17=Wunderbare Gute-Nacht-Geschichten 18
TTITLE18=Wunderbare Gute-Nacht-Geschichten 19
TTITLE19=Wunderbare Gute-Nacht-Geschichten 20
EXTD=
EXTT0=
EXTT1=
EXTT2=
EXTT3=
EXTT4=
EXTT5=
EXTT6=
EXTT7=
EXTT8=
EXTT9=
EXTT10=
EXTT11=
EXTT12=
EXTT13=
EXTT14=
EXTT15=
EXTT16=
EXTT17=
EXTT18=
EXTT19=
PLAYORDER=
